<svg width="92" height="75" viewBox="0 0 92 75" fill="none" xmlns="http://www.w3.org/2000/svg">
<path fill-rule="evenodd" clip-rule="evenodd" d="M85.2047 52.6806C85.589 52.6104 85.9801 52.5746 86.3759 52.5746C87.9621 52.5746 89.4428 53.153 90.5222 54.3322C91.5277 55.4305 92.004 56.8279 92 58.3066C91.9978 59.0425 91.8588 59.7771 91.7215 60.4975L90.1631 68.6668H74.2373C73.765 68.7831 73.283 68.8507 72.7974 68.8711L72.6391 68.9736C67.4772 72.3126 61.4763 74.0472 55.3331 74.0472C47.9034 74.0472 40.7078 71.4979 35.0154 66.7628C28.8364 74.7775 14.7336 76.0202 6.61505 70.5812C2.06987 67.5362 0.160534 63.7705 0.00605531 58.3394C-0.122023 53.8375 1.78917 49.9549 5.02695 46.903C5.47212 46.4833 5.9357 46.0849 6.41383 45.7042C5.43409 44.876 4.5573 43.9389 3.83828 42.8588C0.567106 37.9448 0.546273 31.382 3.81866 26.4913V3.95532L6.04673 2.98121C13.1916 -0.14183 20.8465 -1.36288 28.1309 2.05185C29.5455 2.51828 31.0206 3.1942 32.4765 3.45349L35.5427 3.99964V5.52244C35.8194 5.50503 36.0955 5.48014 36.3708 5.4476L40.5242 4.95689V7.14358C40.7189 7.08493 40.9123 7.02122 41.1039 6.95222L46.0788 5.1626V14.7601C49.0769 13.8592 52.1983 13.4025 55.3331 13.4025C67.7458 13.4025 79.1111 20.7852 84.1072 32.1541C86.9892 38.7125 87.3812 45.9217 85.2047 52.6806V52.6806ZM63.5667 55.2552C62.1579 55.7912 62.8076 53.5341 61.232 53.5341C58.3753 53.5341 53.1278 54.574 50.8449 52.8489C50.1247 53.3282 49.2155 54.5399 48.3711 54.7926C46.4429 55.3706 44.2807 55.46 42.2762 55.46L40.6038 54.739C44.4553 59.77 51.2551 66.2807 57.2353 63.8771C57.8276 63.8771 58.4199 63.8475 59.009 63.7887L59.9369 58.3305L62.4233 58.946L63.5667 55.2552ZM67.3844 28.9476C57.297 18.4372 51.6991 20.9549 42.3755 30.237L50.7808 31.2558V31.6915C52.3783 30.9555 54.1098 30.6025 55.8968 30.6025C58.5725 30.6025 61.109 31.3246 63.2479 32.8931C64.3182 32.0895 66.1121 29.3082 67.3844 28.9476V28.9476ZM17.4765 37.9971L21.0417 40.401C21.7783 39.2117 22.2937 37.8432 22.6007 36.525C23.6053 32.2113 22.8839 26.1202 17.0145 27.2171C15.5058 27.4988 14.8416 27.8748 14.0376 29.1915C13.4646 30.1306 13.4798 32.7897 13.8985 33.7917C14.9759 36.3721 15.4114 36.3107 17.4765 37.9971ZM15.4892 48.4483C14.6061 49.335 13.9715 50.3059 13.1602 51.3786C12.6663 52.0325 11.7928 54.774 11.7315 55.6069C11.5881 57.5469 11.6269 60.6424 12.3352 62.4609C12.4337 62.7143 12.5395 62.9651 12.6534 63.2121L16.0234 64.723C18.2173 65.4901 20.6023 65.0739 22.5056 63.7671C23.6183 63.0033 24.1921 61.7972 24.7164 60.5966C26.0183 57.6149 23.527 54.3035 21.6721 52.2093C20.9874 51.466 18.0956 49.9187 17.1113 49.3803C16.5641 49.0812 16.0286 48.7612 15.4892 48.4483V48.4483Z" fill="#E9E9E9"/>
<path fill-rule="evenodd" clip-rule="evenodd" d="M39.3095 8.67335C40.0564 8.54484 40.7908 8.35454 41.5135 8.09417L44.8642 6.88911V16.4381C48.1782 15.2447 51.7193 14.6162 55.332 14.6162C75.811 14.6162 90.9364 35.0361 83.4313 54.0313C83.6533 54.1047 83.8695 54.1965 84.0764 54.3066C84.7966 53.9695 85.5702 53.7884 86.3747 53.7884C87.6208 53.7884 88.7774 54.2257 89.6262 55.1521C90.424 56.0242 90.7887 57.1291 90.7854 58.3033C90.7839 58.9393 90.6476 59.6452 90.5283 60.2704L89.158 67.4533H74.0819C73.5661 67.5935 73.0303 67.6645 72.4795 67.6645C72.4619 67.6645 72.4453 67.6645 72.4278 67.6645L71.9788 67.9549C67.0124 71.1663 61.2423 72.8337 55.332 72.8337C47.7151 72.8337 40.3894 70.053 34.7921 64.9614C29.5352 73.3511 15.2861 74.9301 7.28946 69.5731C3.07665 66.7506 1.36161 63.3498 1.21812 58.3049C1.0996 54.1339 2.87051 50.6029 5.8582 47.7863C6.66106 47.0302 7.52229 46.3501 8.42276 45.7191C7.03573 44.7477 5.79141 43.6044 4.84755 42.1865C1.7213 37.4905 1.8882 31.2939 5.03115 26.8691V4.74931L6.5317 4.09335C13.3591 1.10901 20.7015 -0.119463 27.6808 3.18204C29.168 3.66524 30.752 4.37962 32.2625 4.64833L34.3281 5.01638V6.76558C35.0574 6.77478 35.786 6.73804 36.512 6.65292L39.3095 6.32241V8.67335ZM61.1513 54.0004C61.0971 53.9437 61.0436 53.8852 60.9919 53.8268C60.9385 53.8852 60.8834 53.9437 60.8275 54.0004H61.1513ZM60.669 54.1589C60.6347 54.1923 60.5997 54.2257 60.5646 54.2582C59.3495 55.3966 57.8348 55.9499 56.1732 55.9499C54.6051 55.9499 53.1129 55.531 51.8778 54.5412C51.675 54.3793 51.4856 54.2065 51.3086 54.0254C50.8121 54.5362 50.1979 54.9217 49.4718 55.1395C48.4128 55.4567 47.1317 55.5034 46.0301 55.5034H43.1634C45.7581 59.9032 49.8799 63.1646 55.332 63.1646C56.0539 63.1646 56.7732 63.1011 57.4826 62.9743L57.9892 59.9941L59.5165 60.3722L60.669 54.1589ZM65.6429 29.3168C63.095 26.3075 59.6266 24.2845 55.332 24.2845C50.853 24.2845 47.2719 26.4852 44.6973 29.7108H51.559V31.0494C51.8619 30.7623 52.1941 30.5036 52.5546 30.2749C53.6153 29.6031 54.8129 29.2901 56.0664 29.2901C57.6804 29.2901 59.1985 29.7558 60.4386 30.8124C60.5713 30.925 60.699 31.0419 60.8209 31.1629C62.0735 29.7984 63.8436 29.321 65.6429 29.3168ZM17.0537 37.3778L20.2274 39.5176C20.2475 39.5293 20.2667 39.5401 20.2859 39.5518C20.2976 39.5384 20.3093 39.5251 20.3209 39.5126C23.5657 35.8789 23.4397 27.3172 17.2673 28.4706C15.9721 28.7126 15.2736 29.1524 14.5934 30.2658C14.0301 31.1896 14.0059 33.2434 14.4223 34.2415C15.2193 36.1493 15.5398 36.1343 17.0537 37.3778ZM13.7789 61.866L16.4002 63.0411C18.2054 63.692 20.159 63.3749 21.7296 62.2966C22.6669 61.6532 23.1417 60.7452 23.584 59.7321C24.6572 57.2751 22.9798 54.789 21.3967 53.0022C20.8592 52.4189 18.878 51.3356 18.1377 50.9309C17.6629 50.6713 16.9644 50.2391 16.3494 49.9161C15.2895 50.7381 14.8738 51.4442 14.0334 52.5558C13.5711 53.1675 12.9251 55.1521 12.8675 55.9315C12.7607 57.3794 12.8108 59.5393 13.3374 60.8921C13.471 61.2343 13.6178 61.5597 13.7789 61.866Z" fill="#008FD7"/>
<path fill-rule="evenodd" clip-rule="evenodd" d="M55.3323 17.1198C74.9812 17.1198 89.1502 37.5206 80.0594 55.428H76.8494L76.5646 56.9571C76.4746 56.8188 76.3754 56.6852 76.2663 56.5565C75.4915 55.6433 74.4427 55.2165 73.252 55.2165C72.134 55.2165 71.1523 55.5203 70.3361 56.112L70.4635 55.428H70.4497C72.1923 52.0409 73.2013 48.028 73.2013 43.7252C73.2013 31.6058 65.2011 21.7814 55.3323 21.7814C45.4635 21.7814 37.4632 31.6058 37.4632 43.7252C37.4632 55.8444 45.4635 65.6689 55.3323 65.6689C56.4251 65.6689 57.4947 65.5479 58.5332 65.3172L58.462 65.7362L59.4096 65.9892C59.9118 66.1233 60.4588 66.2372 60.9805 66.2372C61.8681 66.2372 62.7192 65.9994 63.3735 65.3762C64.0403 64.741 64.3593 63.8154 64.5241 62.9309L64.6072 62.485C64.7456 62.3817 64.8823 62.2756 65.0181 62.1678L64.2994 66.0256H68.4893L68.8146 64.2793C68.9309 64.4566 69.0609 64.6279 69.2056 64.7924C69.6178 65.2608 70.0933 65.6134 70.6198 65.8527C66.247 68.6807 60.989 70.3305 55.3323 70.3305C47.2727 70.3305 40.0223 66.9827 34.9878 61.6479C35.3743 60.8045 35.6499 59.893 35.793 58.9128C36.6603 52.972 33.9282 48.8241 29.3637 46.0467C28.7369 45.6653 28.3983 45.404 27.8393 45.0833C27.1248 44.7487 25.9987 44.2689 26.0988 43.6487C26.3422 42.1422 35.3267 37.4605 32.0453 29.533C36.9216 22.0741 45.528 17.1198 55.3323 17.1198V17.1198Z" fill="#E9E9E9"/>
<path fill-rule="evenodd" clip-rule="evenodd" d="M12.8123 45.813C11.6773 46.8833 3.49481 50.2777 3.72135 58.2345C3.84486 62.5731 5.22825 65.1792 8.68316 67.4941C16.8354 72.9561 32.4762 70.0383 34.1528 59.6554C35.133 53.5844 32.4798 49.3457 27.9682 46.5074C27.187 46.016 26.8606 45.7198 25.9758 45.2508C25.6322 45.0687 25.3223 44.8604 24.9966 44.6671C24.597 44.4299 24.321 44.3445 23.9081 44.1131C23.9879 43.6403 24.4422 43.4889 25.223 42.9243C29.5472 39.7978 33.3596 34.8493 30.7231 29.0591C28.7773 24.7857 22.2184 22.7619 17.6516 23.2675C14.3211 23.6362 12.5624 23.8058 9.63765 25.803C4.63261 29.2207 3.8134 36.1154 6.93138 40.7985C8.65676 43.39 11.5955 44.6413 12.459 45.3406C12.9194 45.7134 12.6527 45.354 12.8123 45.813V45.813ZM16.8081 26.0099C14.6533 26.4126 13.4258 27.3754 12.4574 28.9617C11.5461 30.4544 11.3244 33.3185 12.1129 35.2065C13.1613 37.7167 13.7317 37.8746 15.5537 39.3858L18.9058 41.6465C20.9293 42.775 20.4606 43.1158 22.1888 41.1799C27.3645 35.3824 25.1648 24.4486 16.8081 26.0099V26.0099ZM25.5821 53.3254C25.6389 53.8557 25.9697 54.1137 26.2173 54.5802C30.1055 61.9049 23.7309 69.5558 15.5843 66.1186C15.1539 65.937 14.7446 65.6359 14.3884 65.3918C13.931 65.0785 13.4913 64.8728 13.3061 64.3974L15.455 65.3618C18.1425 66.368 20.9617 65.8614 23.1474 64.3607C24.56 63.3906 25.2748 62.116 25.8783 60.7347C27.4058 57.2389 25.5459 53.9088 23.2687 51.3403C22.5412 50.5198 20.3954 49.3119 19.3401 48.7344C15.7572 46.7736 16.2613 46.8743 15.0904 47.7304C13.5042 48.8901 13.0896 49.6541 12.0369 51.0464C11.3506 51.9542 10.474 54.3485 10.371 55.7473C10.2258 57.717 10.3622 60.1502 11.0048 61.8009C12.2793 65.0745 14.687 67.2766 18.3752 67.4871C22.4559 67.7199 25.4633 65.8876 26.8608 63.2297C28.1073 60.859 28.0983 57.9732 26.8565 55.2165C26.3801 54.1587 26.0367 53.9982 25.582 53.3254H25.5821Z" fill="#E9E9E9"/>
<path fill-rule="evenodd" clip-rule="evenodd" d="M50.4485 48.1385C50.4485 49.6845 50.3081 50.7969 50.0271 51.4714C49.7493 52.1501 49.3218 52.5706 48.7538 52.7414C48.1829 52.9122 47.276 52.9997 46.0303 52.9997H41.673V32.2146H49.0561V35.8147H45.4471V39.3358H46.0303C47.1905 39.3358 48.073 39.4321 48.6683 39.6291C49.2638 39.8262 49.7096 40.2598 50.0057 40.9343C50.3019 41.6043 50.4485 42.6598 50.4485 44.0963V48.1385ZM46.6744 47.5123V44.508C46.6744 43.632 46.6135 43.1021 46.4913 42.9139C46.3691 42.7255 46.0211 42.6204 45.4471 42.5941V49.426C45.9265 49.426 46.2501 49.3385 46.418 49.1633C46.589 48.9882 46.6744 48.4364 46.6744 47.5123ZM60.5766 41.2802H56.8026V37.6716C56.8026 36.6205 56.763 35.968 56.6836 35.7051C56.6041 35.4467 56.4271 35.3154 56.1552 35.3154C55.8499 35.3154 55.6546 35.473 55.5721 35.7884C55.4897 36.108 55.4469 36.7912 55.4469 37.8423V47.4859C55.4469 48.4976 55.4897 49.1546 55.5721 49.4655C55.6546 49.772 55.8408 49.9254 56.1279 49.9254C56.4057 49.9254 56.5888 49.772 56.6745 49.4611C56.76 49.1546 56.8026 48.4275 56.8026 47.2845V44.67H60.5766V45.4801C60.5766 47.6349 60.4698 49.1633 60.2591 50.0611C60.0484 50.9632 59.5781 51.7516 58.8546 52.4304C58.1279 53.1093 57.2362 53.4465 56.1736 53.4465C55.0714 53.4465 54.1615 53.1618 53.444 52.5881C52.7294 52.0144 52.2531 51.2217 52.021 50.2056C51.789 49.1896 51.673 47.6655 51.673 45.6291V39.5591C51.673 38.0613 51.7095 36.9401 51.7798 36.1913C51.8531 35.4424 52.0638 34.7197 52.4211 34.0277C52.7752 33.3359 53.2668 32.7884 53.8958 32.3899C54.5248 31.9914 55.2484 31.7943 56.0668 31.7943C57.1752 31.7943 58.0912 32.1008 58.8149 32.7183C59.5355 33.3315 60.0087 34.0979 60.2377 35.0176C60.4637 35.9373 60.5766 37.365 60.5766 39.3051V41.2802ZM68.604 41.2409C69.1507 41.5079 69.5567 41.9415 69.8254 42.5415C70.091 43.1459 70.2254 44.5604 70.2254 46.7853C70.2254 48.4364 70.0942 49.7195 69.8315 50.6305C69.569 51.5414 69.117 52.2333 68.4728 52.7064C67.8286 53.1837 67.004 53.4202 65.9964 53.4202C64.8545 53.4202 63.9538 53.1443 63.3034 52.5925C62.6499 52.0407 62.2194 51.3619 62.0148 50.5604C61.8102 49.7633 61.7064 48.3706 61.7064 46.3912V44.7488H65.3155V48.1298C65.3155 49.0319 65.3521 49.6056 65.4285 49.8465C65.5018 50.0918 65.6697 50.2144 65.9262 50.2144C66.2072 50.2144 66.3934 50.0611 66.4819 49.7502C66.5705 49.4437 66.6163 48.6378 66.6163 47.337V45.8963C66.6163 45.0991 66.5553 44.5167 66.4301 44.1488C66.3048 43.7809 66.1186 43.5401 65.8743 43.4262C65.6301 43.308 65.1568 43.2422 64.4545 43.2248V40.2029C65.3125 40.2029 65.8408 40.1547 66.0453 40.0627C66.2468 39.9663 66.3934 39.7649 66.4819 39.4453C66.5705 39.1299 66.6163 38.635 66.6163 37.9606V36.8087C66.6163 36.0818 66.5644 35.6044 66.4606 35.3723C66.3537 35.1402 66.1919 35.0264 65.972 35.0264C65.7185 35.0264 65.5476 35.149 65.4559 35.3898C65.3613 35.6351 65.3155 36.1518 65.3155 36.9489V38.6526H61.7064V36.8832C61.7064 34.8993 62.024 33.5636 62.656 32.8672C63.2881 32.1709 64.2926 31.8205 65.6697 31.8205C67.3918 31.8205 68.5613 32.3023 69.175 33.2701C69.7889 34.238 70.0972 35.5825 70.0972 37.2992C70.0972 38.4642 69.9872 39.3051 69.7674 39.8219C69.5444 40.3387 69.1567 40.8116 68.604 41.2409Z" fill="#E9E9E9"/>
<path fill-rule="evenodd" clip-rule="evenodd" d="M62.7807 56.5041H69.1683L67.5949 64.9494H65.5944L66.8372 58.2777H64.2961L63.4661 62.7336C63.3044 63.5989 63.0268 64.2199 62.6311 64.5969C62.2353 64.9738 61.6851 65.161 60.9804 65.161C60.6451 65.161 60.2155 65.0905 59.687 64.9494L60.0056 63.0726C60.2782 63.1405 60.5243 63.1757 60.7464 63.1757C61.089 63.1757 61.3304 63.0455 61.4728 62.7824C61.6126 62.5221 61.7599 61.9987 61.9072 61.2122L62.7807 56.5041ZM76.1163 61.4346H71.0173C71.0123 61.5241 71.0101 61.5946 71.0101 61.6434C71.0101 62.2103 71.1548 62.6659 71.442 63.013C71.7292 63.3602 72.0816 63.5337 72.4942 63.5337C73.1747 63.5337 73.7056 63.1432 74.0869 62.3622L75.8967 62.7039C75.542 63.5229 75.069 64.1359 74.4755 64.5453C73.8817 64.9549 73.2181 65.161 72.4796 65.161C71.4686 65.161 70.6457 64.8002 70.0135 64.0815C69.3787 63.3602 69.0626 62.4083 69.0626 61.2204C69.0626 60.0623 69.3474 59.0317 69.9193 58.1258C70.6963 56.9027 71.8089 56.2925 73.2519 56.2925C74.1713 56.2925 74.9025 56.6125 75.4454 57.2526C75.9883 57.8926 76.2587 58.7903 76.2587 59.943C76.2587 60.4962 76.2104 60.9926 76.1163 61.4346V61.4346ZM74.4054 60.0514C74.4104 59.9484 74.4126 59.8724 74.4126 59.8182C74.4126 59.1863 74.2872 58.7117 74.0363 58.3943C73.7876 58.077 73.4522 57.9197 73.0299 57.9197C72.61 57.9197 72.2335 58.0987 71.9006 58.4595C71.5675 58.8174 71.3431 59.349 71.2248 60.0514H74.4054ZM77.7434 56.5041H79.6642L79.4906 57.5157C80.2361 56.6994 81.0204 56.2925 81.8409 56.2925C82.408 56.2925 82.8448 56.4253 83.1512 56.6884C83.4601 56.9543 83.6556 57.3204 83.7401 57.7869C84.0007 57.3611 84.3724 57.0085 84.8598 56.7211C85.3471 56.4362 85.8516 56.2925 86.3752 56.2925C86.9761 56.2925 87.4442 56.477 87.7797 56.843C88.1151 57.2092 88.2816 57.692 88.2816 58.2967C88.2795 58.5869 88.2092 59.0887 88.0693 59.8019L87.0871 64.9494H85.0601L86.0349 59.8019C86.1556 59.1565 86.2184 58.7876 86.2256 58.7009C86.2256 58.4595 86.1628 58.2696 86.0349 58.1285C85.9094 57.9903 85.7189 57.9197 85.4655 57.9197C84.9562 57.9197 84.5002 58.2208 84.0997 58.8256C83.8075 59.2568 83.5591 60.0243 83.3539 61.1226L82.6421 64.9494H80.615L81.5658 59.8317C81.6744 59.2433 81.7275 58.8608 81.7275 58.6846C81.7275 58.4622 81.6599 58.2777 81.5273 58.1339C81.392 57.9903 81.2062 57.9197 80.9698 57.9197C80.7478 57.9197 80.5185 57.9957 80.2844 58.1448C80.048 58.294 79.8403 58.4974 79.6642 58.7605C79.4856 59.0209 79.3336 59.3571 79.2056 59.7666C79.1478 59.9592 79.0489 60.3932 78.9161 61.0684L78.1971 64.9494H76.1699L77.7434 56.5041Z" fill="#E9E9E9"/>
<path fill-rule="evenodd" clip-rule="evenodd" d="M32.077 11.5322V14.8409C30.3795 14.5785 28.682 13.9052 26.9845 13.4374V10.1288C28.682 10.5965 30.3795 11.2698 32.077 11.5322Z" fill="#E9E9E9"/>
<path fill-rule="evenodd" clip-rule="evenodd" d="M32.077 15.5892V19.6654C30.3795 19.3421 28.682 18.5128 26.9845 17.9364V13.8602C28.682 14.4365 30.3795 15.2659 32.077 15.5892V15.5892Z" fill="#E9E9E9"/>
<path fill-rule="evenodd" clip-rule="evenodd" d="M32.0768 20.6822V24.4787C30.3796 24.1775 28.6818 23.4052 26.9846 22.8681V22.8617C19.783 20.4959 13.3331 22.4016 7.67462 24.3585V6.4975C12.5766 4.35456 19.845 2.16667 26.9846 5.62029V5.6153C28.6818 6.15238 30.3796 6.92463 32.0768 7.22588V11.0223C30.3796 10.7211 28.6818 9.94885 26.9846 9.41178L27.0637 6.45911C20.6969 3.26928 13.5941 4.64134 8.5736 7.06712L8.64453 23.1764C13.2234 21.5262 19.7448 19.7412 26.9771 21.9631L26.9846 19.0719C28.6818 19.6082 30.3796 20.3805 32.0768 20.6817V20.6822Z" fill="#E9E9E9"/>
<path fill-rule="evenodd" clip-rule="evenodd" d="M37.8296 11.7734C39.4404 11.7041 41.0512 11.4273 42.6622 10.8472V14.0259C41.0796 14.6303 39.4654 14.9042 37.8296 14.9521V11.7734Z" fill="#E9E9E9"/>
<path fill-rule="evenodd" clip-rule="evenodd" d="M37.8296 15.5417C39.4404 15.4724 41.0512 15.1956 42.6622 14.6155V17.7941C41.0796 18.3985 39.4654 18.6724 37.8296 18.7203V15.5417Z" fill="#E9E9E9"/>
<path fill-rule="evenodd" clip-rule="evenodd" d="M32.6454 9.28169C34.1676 9.43795 35.6461 9.43109 37.0809 9.2612V13.0262C35.6023 13.1898 34.1237 13.2175 32.6454 13.0466V9.28169Z" fill="#E9E9E9"/>
<path fill-rule="evenodd" clip-rule="evenodd" d="M32.6454 13.6429C34.1676 13.7992 35.6461 13.7924 37.0809 13.6225V17.3875C35.6023 17.5511 34.1237 17.5788 32.6454 17.4079V13.6429Z" fill="#E9E9E9"/>
<path fill-rule="evenodd" clip-rule="evenodd" d="M32.6454 18.0043C34.1676 18.1606 35.6461 18.1537 37.0809 17.9838V21.7487C35.6023 21.9124 34.1237 21.9401 32.6454 21.7692V18.0043Z" fill="#E9E9E9"/>
<path fill-rule="evenodd" clip-rule="evenodd" d="M24.6493 13.0801L22.8458 13.115V6.62869L11.7496 6.84298V12.0317L17.0209 11.9299C17.5568 11.9195 17.9923 11.5055 17.9923 11.0043V9.57644C17.9923 9.07518 17.5568 8.67638 17.0209 8.68673L13.4138 8.75636V8.10842L21.4583 7.95308L18.2885 13.2029L12.721 13.3105C12.7224 13.3105 12.721 13.3105 12.721 13.3105C12.185 13.3208 11.7496 13.7365 11.7496 14.2377C11.7496 14.2377 11.7496 14.2377 11.7496 14.2391V18.9068C11.7496 18.9054 11.7496 18.9068 11.7496 18.9068C11.7496 19.408 12.185 19.8068 12.721 19.7965L12.7224 19.7964L24.2329 19.5742V18.2765L13.4134 18.4855V14.5945L17.4965 14.5156L15.9117 17.1397L17.5089 17.1089L19.0938 14.4847L21.458 14.439V17.0326L22.8454 17.0058V16.3578L24.6489 16.323C25.1849 16.3126 25.6203 15.897 25.6203 15.3958V13.9696C25.6203 13.4684 25.1849 13.0695 24.6489 13.0798L24.6493 13.0801ZM22.8458 14.4125V15.0605L23.9565 15.039V14.391L22.8458 14.4125ZM21.4583 10.568L19.8857 13.1721L21.4583 13.1417V10.568ZM16.3281 10.6473L13.4138 10.7036V10.054L16.3281 9.9977V10.6473Z" fill="#E9E9E9"/>
</svg>
